<?xml version="1.0" encoding="utf-8"?>
<svg viewBox="0 0 50 16.7" fill="none" xmlns="http://www.w3.org/2000/svg">
  <path d="M 43.352 16.718 C 42.814 16.722 42.278 16.653 41.759 16.514 C 41.276 16.382 40.816 16.175 40.397 15.902 C 39.986 15.633 39.615 15.309 39.295 14.939 C 38.969 14.558 38.695 14.135 38.481 13.682 C 38.257 13.211 38.088 12.715 37.979 12.205 C 37.866 11.67 37.81 11.125 37.812 10.578 C 37.809 10.026 37.871 9.475 37.996 8.937 C 38.117 8.424 38.303 7.928 38.55 7.462 C 38.791 7.007 39.094 6.587 39.451 6.215 C 39.813 5.841 40.224 5.518 40.674 5.255 C 41.149 4.978 41.662 4.771 42.197 4.642 C 42.787 4.503 43.392 4.434 43.998 4.438 C 44.583 4.434 45.166 4.501 45.735 4.639 C 46.253 4.767 46.749 4.97 47.207 5.243 C 48.086 5.765 48.801 6.522 49.273 7.427 C 49.516 7.889 49.699 8.38 49.818 8.888 C 49.941 9.419 50.002 9.964 50 10.509 L 50 16.442 L 47.855 16.442 L 47.855 10.243 C 47.878 9.511 47.601 8.845 47.357 8.347 C 47.057 7.723 46.59 7.194 46.006 6.818 C 45.424 6.444 44.733 6.254 43.952 6.254 C 43.125 6.254 42.407 6.448 41.817 6.829 C 41.227 7.211 40.756 7.748 40.455 8.382 C 40.131 9.076 39.969 9.835 39.982 10.6 C 39.972 11.35 40.13 12.092 40.443 12.774 C 40.735 13.405 41.199 13.943 41.782 14.326 C 42.364 14.707 43.079 14.901 43.906 14.901 C 44.413 14.913 44.917 14.82 45.386 14.627 C 45.855 14.435 46.279 14.147 46.63 13.783 L 46.63 15.557 C 46.263 15.873 45.851 16.133 45.406 16.327 C 44.824 16.586 44.133 16.718 43.352 16.718 Z M 30.886 16.442 L 30.886 4.714 L 33.033 4.714 L 33.033 16.442 L 30.886 16.442 Z M 26.2 16.442 L 23.43 16.442 C 22.954 16.449 22.48 16.373 22.031 16.218 C 21.632 16.075 21.27 15.845 20.972 15.545 C 20.675 15.245 20.448 14.884 20.305 14.487 C 20.151 14.044 20.076 13.577 20.083 13.108 L 20.083 7.349 L 18.006 7.349 L 18.006 5.532 L 20.083 5.532 L 20.083 2.426 L 22.207 2.426 L 22.207 5.532 L 26.201 5.532 L 26.201 7.349 L 22.207 7.349 L 22.207 12.969 C 22.207 13.473 22.351 13.879 22.634 14.177 C 22.918 14.475 23.317 14.625 23.823 14.625 L 26.201 14.625 L 26.201 16.442 L 26.2 16.442 Z M 11.842 16.442 L 11.842 4.714 L 13.989 4.714 L 13.989 16.442 L 11.842 16.442 Z M 2.054 16.442 L 2.054 7.349 L 0 7.349 L 0 5.532 L 2.054 5.532 L 2.054 4.576 C 2.047 4.102 2.122 3.63 2.276 3.182 C 2.417 2.785 2.644 2.425 2.943 2.127 C 3.242 1.83 3.604 1.603 4.002 1.463 C 4.452 1.309 4.926 1.234 5.402 1.242 L 8.31 1.242 L 8.31 3.059 L 5.817 3.059 C 5.296 3.059 4.892 3.205 4.617 3.495 C 4.341 3.785 4.201 4.196 4.201 4.714 L 4.201 5.532 L 7.848 5.532 L 7.848 7.349 L 4.201 7.349 L 4.201 16.442 L 2.054 16.442 Z M 31.971 2.852 C 31.784 2.853 31.598 2.815 31.425 2.742 C 31.253 2.669 31.097 2.561 30.967 2.426 C 30.832 2.297 30.725 2.141 30.651 1.969 C 30.578 1.798 30.54 1.613 30.54 1.426 C 30.54 1.239 30.578 1.054 30.651 0.882 C 30.725 0.71 30.832 0.555 30.967 0.426 C 31.097 0.291 31.253 0.184 31.426 0.111 C 31.598 0.038 31.784 0 31.971 0 C 32.159 0 32.344 0.038 32.517 0.111 C 32.69 0.184 32.846 0.291 32.976 0.426 C 33.111 0.555 33.218 0.71 33.291 0.882 C 33.365 1.054 33.403 1.239 33.403 1.426 C 33.403 1.613 33.365 1.798 33.291 1.969 C 33.218 2.141 33.111 2.297 32.976 2.426 C 32.846 2.561 32.69 2.669 32.517 2.742 C 32.345 2.815 32.159 2.852 31.971 2.852 L 31.971 2.852 Z M 12.927 2.852 C 12.739 2.852 12.554 2.815 12.381 2.742 C 12.208 2.669 12.052 2.561 11.923 2.426 C 11.788 2.297 11.68 2.141 11.607 1.969 C 11.533 1.798 11.496 1.613 11.496 1.426 C 11.496 1.239 11.533 1.054 11.607 0.882 C 11.68 0.71 11.788 0.555 11.923 0.426 C 12.053 0.291 12.209 0.184 12.381 0.111 C 12.554 0.038 12.74 0 12.927 0 C 13.115 0 13.3 0.038 13.473 0.111 C 13.645 0.184 13.801 0.291 13.931 0.426 C 14.066 0.555 14.174 0.71 14.247 0.882 C 14.32 1.054 14.358 1.239 14.358 1.426 C 14.358 1.613 14.32 1.798 14.247 1.969 C 14.174 2.141 14.066 2.297 13.931 2.426 C 13.802 2.561 13.646 2.669 13.473 2.742 C 13.3 2.815 13.115 2.852 12.927 2.852 L 12.927 2.852 Z" style="fill: rgb(255, 255, 255);"/>
</svg>
