<svg width="128" height="32" viewBox="0 0 128 32" fill="none" xmlns="http://www.w3.org/2000/svg">
<g clip-path="url(#clip0_6128_521)">
<path d="M78.0963 29.9889C78.8509 31.1125 79.9412 31.7212 81.1752 31.7212C81.8298 31.7212 82.4886 31.5377 83.0306 31.2C84.3522 30.3766 85.2152 28.5275 83.9811 26.4075L78.1776 16.8391L83.0535 11.9923C84.8129 10.2308 84.4439 8.26085 83.3578 7.17476C82.7575 6.57439 81.9278 6.23043 81.0794 6.23043C80.2309 6.23043 79.3512 6.60149 78.6508 7.30192L70.5333 15.4007V3.65592C70.5333 1.31697 68.8051 0.112061 67.104 0.112061C65.403 0.112061 63.6665 1.32948 63.6665 3.65592V28.1481C63.6665 30.4892 65.3926 31.7149 67.0999 31.7149C68.8072 31.7149 70.5333 30.4892 70.5333 28.1481V24.2457L73.0619 21.7755L78.0733 29.9534L78.0963 29.9868V29.9889Z" fill="#FFD206"/>
<path d="M91.2689 6.23256C89.5366 6.23256 87.7814 7.53128 87.7814 10.0161V28.267C87.7814 30.5351 89.4949 31.7212 91.1856 31.7212C92.8762 31.7212 94.5898 30.5351 94.5898 28.267V17.871C94.5898 14.0061 97.0767 13.5663 98.2733 13.3515C100.664 12.9263 102.142 11.6359 102.322 9.81394C102.449 8.19627 101.705 6.99344 100.17 6.33679C99.768 6.15959 99.2781 6.06787 98.7507 6.06787C97.1976 6.06787 95.1672 6.91631 94.4522 8.4902L94.2708 8.89462L94.202 8.45685C93.9665 6.99553 92.5489 6.23256 91.2689 6.23256Z" fill="#FFD206"/>
<path d="M115.359 31.8879C108.033 31.8879 102.718 26.5763 102.718 19.2572C102.718 15.7571 103.952 12.4801 106.193 10.0327C108.536 7.47488 111.79 6.06567 115.359 6.06567C118.928 6.06567 122.213 7.42276 124.535 9.8847C126.77 12.2549 128.002 15.484 128.002 18.9778C128.002 22.4717 126.772 25.6966 124.535 28.0689C122.213 30.5308 118.955 31.8879 115.359 31.8879ZM115.359 12.2216C112.234 12.2216 109.693 15.3422 109.693 19.1759C109.693 23.0095 112.128 25.7278 115.359 25.7278C118.59 25.7278 121.027 22.9094 121.027 19.1759C121.027 15.4423 118.484 12.2216 115.359 12.2216Z" fill="#FFD206"/>
<path d="M24.0878 12.6948C25.7701 12.6948 27.5796 13.8413 27.5796 16.3553V28.073C27.5796 30.4703 29.3015 31.7253 31.0025 31.7253C32.7036 31.7253 34.4234 30.4703 34.4234 28.073V14.5042C34.4234 9.06542 30.8691 6.23451 26.4414 6.23451C22.9454 6.23451 20.1229 7.62286 19.5287 8.79859L19.3995 9.06334L19.2703 8.77358C18.5823 7.46235 15.9974 6.23242 12.9142 6.23242C10.175 6.23242 7.58386 6.94745 6.78962 8.34831L6.602 8.66518L6.53112 8.27535C6.28514 6.94328 4.80506 6.23242 3.54177 6.23242C1.78027 6.23242 0 7.42483 0 9.72V28.0688C0 30.4662 1.7219 31.7211 3.42504 31.7211C5.12817 31.7211 6.85007 30.4662 6.85007 28.0688V16.3512C6.85007 13.8163 8.6491 12.6614 10.321 12.6614C11.9928 12.6614 13.7898 13.8163 13.7898 16.3512V28.0688C13.7898 30.4662 15.5138 31.7211 17.2148 31.7211C18.9159 31.7211 20.6378 30.4662 20.6378 28.0688V16.3512C20.6378 13.8225 22.3701 12.6906 24.0878 12.6906" fill="#FFD206"/>
<path d="M52.4407 22.013C52.4407 25.2859 50.4061 26.718 47.9213 26.718C45.9346 26.718 44.2523 25.5068 44.244 24.0747C44.2356 22.161 45.7658 21.7295 48.2902 21.248C50.7918 20.7706 52.0092 19.9617 52.2302 19.8054L52.4386 19.6532V22.013H52.4407ZM49.6098 6.23242C45.9659 6.23242 42.3053 7.51863 40.7126 9.35727C40.008 10.1703 39.7183 11.0604 39.8538 12.0006C40.081 13.5745 40.8189 14.5313 41.9342 14.6877C42.1135 14.7148 42.2949 14.7252 42.47 14.7252C43.9 14.7252 44.9423 13.933 45.4364 13.4577C46.6205 12.3383 47.5564 11.4565 49.8245 11.4565C51.6944 11.4565 52.6825 12.2257 52.6825 13.6849C52.6825 15.5674 51.2942 15.7258 49.195 15.9634C43.4643 16.6118 37.9359 17.677 37.9359 23.7057C37.9359 27.5998 40.2478 30.4015 44.2773 31.3896C45.1445 31.6023 46.1181 31.7148 47.0999 31.7148C49.6577 31.7148 51.8174 30.9686 52.6012 29.8137L52.7576 29.5844L52.8389 29.8491C53.1182 30.7601 53.4538 31.0207 53.8624 31.2646C54.3565 31.5627 54.9423 31.7169 55.5593 31.7169C57.3834 31.7169 59.0969 30.3411 59.0969 28.1314V12.6197C59.0969 8.6214 55.5489 6.23242 49.6098 6.23242Z" fill="#FFD206"/>
</g>
<defs>
<clipPath id="clip0_6128_521">
<rect width="128" height="31.7759" fill="white" transform="translate(0 0.112061)"/>
</clipPath>
</defs>
</svg>
